<?xml version="1.0" standalone="no"?>
<!DOCTYPE svg PUBLIC "-//W3C//DTD SVG 20010904//EN"
 "http://www.w3.org/TR/2001/REC-SVG-20010904/DTD/svg10.dtd">
<svg version="1.0" xmlns="http://www.w3.org/2000/svg"
 width="34.000000pt" height="34.000000pt" viewBox="0 0 34.000000 34.000000"
 preserveAspectRatio="xMidYMid meet">

<g transform="translate(0.000000,34.000000) scale(0.100000,-0.100000)"
fill="#000000" stroke="none">
<path d="M0 170 l0 -170 170 0 170 0 0 170 0 170 -170 0 -170 0 0 -170z m270
75 l0 -25 -100 0 -100 0 0 25 0 25 100 0 100 0 0 -25z m0 -80 l0 -25 -100 0
-100 0 0 25 0 25 100 0 100 0 0 -25z m-52 -72 c3 -22 0 -23 -72 -23 -67 0 -76
2 -76 18 0 29 10 33 80 30 59 -3 65 -5 68 -25z"/>
</g>
</svg>
