<?xml version="1.0" encoding="UTF-8"?>
<svg width="188px" height="176px" viewBox="0 0 188 176" version="1.1" xmlns="http://www.w3.org/2000/svg" xmlns:xlink="http://www.w3.org/1999/xlink">
    <!-- Generator: Sketch 51.2 (57519) - http://www.bohemiancoding.com/sketch -->
    <title>Group</title>
    <desc>Created with Sketch.</desc>
    <defs></defs>
    <g id="Page-1" stroke="none" stroke-width="1" fill="none" fill-rule="evenodd">
        <g id="Group" fill-rule="nonzero">
            <path d="M163.371,48.824376 L81.25,48.824376 L65,26 L5.629,26 C2.522,26 0,28.5269845 0,31.6474027 L0,170.967394 C0.22425,170.973915 0.4485,170.986957 0.66625,171 L33.215,81.9392849 C33.813,79.7122779 35.82475,78.1700022 38.1225,78.1700022 L169,78.1700022 L169,54.4717787 C169,51.3513605 166.478,48.824376 163.371,48.824376 Z" id="Shape" fill="#EBBA16"></path>
            <g id="folder-(2)">
                <g id="docs-(1)-copy" transform="translate(16.000000, 0.000000)">
                    <path d="M137,48.8903189 L137,167 L0,167 L0,11.4989082 C-0.000340358064,5.14719341 5.0247061,0 11.22603,0 L89.2698869,0 L137,48.8903189 Z" id="Shape" fill="#0C4CBA"></path>
                    <path d="M137,49.0528053 L100.286496,49.0528053 C94.0495954,49.0528053 88.996063,43.8885052 88.996063,37.5156806 L88.996063,0 L137,49.0528053 Z" id="Shape" fill="#70A4FE"></path>
                </g>
                <g id="docs-(1)" transform="translate(16.000000, 35.000000)">
                    <path d="M111.456311,42.7424345 L111.456311,141 L0,141 L0,10.0529377 C-0.000300564719,4.49994155 4.43723694,0 9.91352612,0 L69.3066174,0 L111.456311,42.7424345 Z" id="Shape" fill="#518EF8"></path>
                    <path d="M111.456311,42.8120301 L79.0227682,42.8120301 C73.5129489,42.8120301 69.0485437,38.3047615 69.0485437,32.7427236 L69.0485437,0 L111.456311,42.8120301 Z" id="Shape" fill="#ACD1FC"></path>
                </g>
                <path d="M150.15375,176 L5.07321913,176 C1.73460685,176 -0.693180145,172.813613 0.178748695,169.571839 L33.1305278,78.7663226 C33.7269401,76.5443226 35.7333488,75 38.0249982,75 L183.10553,75 C186.444142,75 188,78.2059355 188,81.4281613 L155.048221,172.233677 C154.451809,174.455677 152.4454,176 150.15375,176 Z" id="Shape" fill="#EFCE4A"></path>
            </g>
        </g>
    </g>
</svg>