<?xml version="1.0" encoding="UTF-8"?>
<svg width="372px" height="512px" viewBox="0 0 372 512" version="1.1" xmlns="http://www.w3.org/2000/svg" xmlns:xlink="http://www.w3.org/1999/xlink">
    <!-- Generator: Sketch 51.2 (57519) - http://www.bohemiancoding.com/sketch -->
    <title>Group</title>
    <desc>Created with Sketch.</desc>
    <defs></defs>
    <g id="Page-1" stroke="none" stroke-width="1" fill="none" fill-rule="evenodd">
        <g id="Group" fill-rule="nonzero">
            <g id="sheets-(1)">
                <path d="M371.412,140.235 L371.412,479.016 C371.412,497.235 356.634,511.999 338.429,511.999 L33.572,511.999 C15.353,511.999 0.589,497.235 0.589,479.016 L0.589,32.983 C0.588,14.764 15.352,0 33.572,0 L231.177,0 L371.412,140.235 Z" id="Shape" fill="#D4175B"></path>
                <polygon id="Shape" fill="#B50746" points="250.31 137.188 371.412 187.079 371.412 140.235 302.751 119.962"></polygon>
                <path d="M371.412,140.235 L264.16,140.235 C245.94,140.235 231.177,125.471 231.177,107.252 L231.177,0 L371.412,140.235 Z" id="Shape" fill="#ED4D82"></path>
            </g>
            <g id="pie-chart" transform="translate(110.000000, 150.000000)" fill="#FFFFFF">
                <path d="M81,71 L152,71 C149.40514,32.9710667 119.028933,2.59222255 81,0 L81,71 Z" id="Shape"></path>
                <path d="M131.810108,128 C143.326355,115.459922 150.772272,99.0912593 152,81 L85,81 L131.810108,128 Z" id="Shape"></path>
                <path d="M70.6314213,81.1485395 L70.6314213,0 C31.1772325,2.69760376 0,35.6356605 0,75.9002831 C0,117.92832 33.9658657,152 75.8633784,152 C94.1490686,152 110.907027,145.494786 124,134.683378 L70.6314213,81.1485395 Z" id="Shape"></path>
            </g>
            <g transform="translate(91.000000, 325.000000)" fill="#FFFFFF">
                <rect id="Rectangle-path-Copy" x="0" y="0" width="189.626" height="21.071"></rect>
                <rect id="Rectangle-path-Copy-2" x="0" y="37" width="189.626" height="21.071"></rect>
                <rect id="Rectangle-path-Copy-3" x="0" y="74" width="134.855" height="21.071"></rect>
            </g>
        </g>
    </g>
</svg>