<?xml version="1.0" standalone="no"?>
<!DOCTYPE svg PUBLIC "-//W3C//DTD SVG 20010904//EN"
 "http://www.w3.org/TR/2001/REC-SVG-20010904/DTD/svg10.dtd">
<svg version="1.0" xmlns="http://www.w3.org/2000/svg"
 width="34.000000pt" height="34.000000pt" viewBox="0 0 34.000000 34.000000"
 preserveAspectRatio="xMidYMid meet">

<g transform="translate(0.000000,34.000000) scale(0.100000,-0.100000)"
fill="#000000" stroke="none">
<path d="M0 170 l0 -170 170 0 170 0 0 170 0 170 -170 0 -170 0 0 -170z m150
100 l0 -30 75 0 c73 0 75 -1 75 -25 0 -24 -2 -25 -75 -25 l-75 0 0 -75 c0 -73
-1 -75 -25 -75 -24 0 -25 2 -25 75 l0 75 -30 0 c-25 0 -30 4 -30 25 0 21 5 25
30 25 27 0 30 3 30 30 0 25 4 30 25 30 21 0 25 -5 25 -30z"/>
</g>
</svg>
